<svg xmlns="http://www.w3.org/2000/svg" viewBox="0 0 32 32" fill="none">
  <!-- Blue gradient background square -->
  <defs>
    <linearGradient id="bg" x1="0" y1="0" x2="32" y2="32" gradientUnits="userSpaceOnUse">
      <stop offset="0%" stop-color="#3b8dff"/>
      <stop offset="50%" stop-color="#006aff"/>
      <stop offset="100%" stop-color="#004fd4"/>
    </linearGradient>
  </defs>
  <rect width="32" height="32" rx="7" fill="url(#bg)"/>
  <!-- Inner sheen -->
  <rect width="32" height="16" rx="7" fill="white" fill-opacity="0.12"/>
  <!-- Wrench icon (centred, white) -->
  <path
    d="M20.5 7.5a4.5 4.5 0 0 0-4.38 5.52l-6.24 6.24a1.5 1.5 0 0 0 2.12 2.12l6.24-6.24A4.5 4.5 0 0 0 20.5 7.5zm0 1.5a3 3 0 0 1 .9.14l-2.15 2.15a1 1 0 0 0 0 1.42l1.04 1.04a1 1 0 0 0 1.42 0l2.15-2.15A3 3 0 1 1 20.5 9z"
    fill="white"
    fill-opacity="0.95"
  />
</svg>
